<svg width="200" height="60" viewBox="0 0 200 60" fill="none" xmlns="http://www.w3.org/2000/svg">
<g clip-path="url(#clip0_2_27)">
<path d="M38.1679 52.5C40.9669 52.5 43.2569 50.7 43.2569 48.5C43.2569 46.3001 40.9669 44.5001 38.1679 44.5001C35.369 44.5001 33.0789 46.3001 33.0789 48.5C33.0789 50.7 35.369 52.5 38.1679 52.5ZM38.1679 46.5C39.5675 46.5 40.7125 47.4 40.7125 48.5C40.7125 49.6001 39.5675 50.5001 38.1679 50.5001C36.7684 50.5001 35.6233 49.6001 35.6233 48.5C35.6233 47.4 36.7684 46.5 38.1679 46.5Z" fill="white" fill-opacity="0.88"/>
<path d="M33.0789 29.5H43.2571C44.0204 29.5 44.5293 29.1 44.5293 28.5C44.5293 27.9 44.0204 27.5 43.2571 27.5H33.0789C32.3156 27.5 31.8067 27.9 31.8067 28.5C31.8067 29.1 32.3156 29.5 33.0789 29.5Z" fill="white" fill-opacity="0.88"/>
<path d="M47.0737 31.5H29.2621C28.4988 31.5 27.9899 31.9 27.9899 32.5C27.9899 33.1 28.4988 33.4999 29.2621 33.4999H47.0739C47.8373 33.4999 48.3461 33.1 48.3461 32.5C48.3461 31.9 47.8371 31.5 47.0737 31.5Z" fill="white" fill-opacity="0.88"/>
<path d="M75.0637 5.49996H68.7023V3.80004C68.7023 2.50008 67.4301 1.5 65.776 1.5H63.9948C62.3409 1.5 61.0686 2.49996 61.0686 3.80004V5.50008H54.7072C53.9438 5.50008 53.435 5.90004 53.435 6.50004C53.435 7.10004 53.944 7.5 54.7073 7.5H61.0687V9.20004C61.0687 10.3978 62.1498 11.3388 63.6133 11.4797V14.6612C62.107 15.0586 61.0687 16.1535 61.0687 17.5V21L53.4351 25.5V24.6C53.4351 23.4 52.2901 22.5 50.7634 22.5H41.9847V17.5C41.9847 16.9 41.4759 16.5 40.7125 16.5C39.9492 16.5 39.4403 16.9 39.4403 17.5V22.5H36.8957V19.5C36.8957 18.9 36.3869 18.5 35.6235 18.5C34.8601 18.5 34.3513 18.9 34.3513 19.5V22.5H25.5727C24.0459 22.5 22.9009 23.4 22.9009 24.6V25.5L15.2673 21V17.5C15.2673 16.1534 14.2292 15.0586 12.7227 14.6612V11.4797C14.1862 11.3387 15.2673 10.3978 15.2673 9.20004V7.5H21.6287C22.3921 7.5 22.9009 7.10004 22.9009 6.50004C22.9009 5.90004 22.3921 5.50008 21.6287 5.50008H15.2672V3.80004C15.2672 2.50008 13.995 1.5 12.3409 1.5H10.5598C8.9058 1.5 7.63359 2.49996 7.63359 3.80004V5.50008H1.27221C0.508856 5.49996 0 5.90004 0 6.50004C0 7.10004 0.508856 7.5 1.27221 7.5H7.63359V9.20004C7.63359 10.3978 8.71466 11.3388 10.1782 11.4797V14.6612C8.67173 15.0586 7.63359 16.1535 7.63359 17.5V33.4999C7.63359 35.2 9.28748 36.4999 11.4504 36.4999C13.6133 36.4999 15.2672 35.2 15.2672 33.4999V29.74L21.7059 34.1429C16.9828 36.4671 11.9488 44.667 11.4862 51.5H11.4504V52.5V53.5V56.2C11.4504 57.4999 12.7226 58.5 14.3766 58.5H16.1579C17.8118 58.5 19.0841 57.5 19.0841 56.2V53.5V52.5C19.0841 44.6 27.2266 38.5 30.5345 38.5H33.0791V40.5H30.2801C29.0079 40.5 27.9901 41.3 27.9901 42.3V54.7C27.9901 55.6999 29.0079 56.5 30.2801 56.5H46.0562C47.3284 56.5 48.3463 55.6999 48.4734 54.7999V42.3C48.4734 41.3 47.4556 40.5 46.1834 40.5H43.2571V38.5H45.8015C49.1095 38.5 57.2519 44.5999 57.2519 52.5V53.5V56.2C57.2519 57.4999 58.5241 58.5 60.1782 58.5H61.9594C63.6133 58.5 64.8856 57.5 64.8856 56.2V53.5V52.5V51.5H64.8499C64.3872 44.667 59.3532 36.4671 54.6301 34.1429L61.0689 29.74V33.4999C61.0689 35.2 62.7227 36.4999 64.8856 36.4999C67.0485 36.4999 68.7024 35.2 68.7024 33.4999V17.5C68.7024 16.1534 67.6643 15.0586 66.1579 14.6612V11.4797C67.6214 11.3387 68.7024 10.3978 68.7024 9.20004V7.5H75.0638C75.8272 7.5 76.336 7.10004 76.336 6.50004C76.336 5.90004 75.827 5.49996 75.0637 5.49996ZM63.6133 3.80004C63.6133 3.6 63.7405 3.50004 63.995 3.50004H65.7762C66.0307 3.50004 66.1579 3.6 66.1579 3.80004V5.50008H63.6133V3.80004ZM10.1782 3.80004C10.1782 3.6 10.3053 3.50004 10.5598 3.50004H12.3411C12.5956 3.50004 12.7227 3.6 12.7227 3.80004V5.50008H10.1782V3.80004ZM12.7226 7.5V9.20004C12.7226 9.40008 12.5954 9.50004 12.3409 9.50004H10.5598C10.3053 9.50004 10.1782 9.40008 10.1782 9.20004V7.5H12.7226ZM12.7226 33.5C12.7226 34.1 12.2137 34.5 11.4504 34.5C10.687 34.5 10.1782 34.1 10.1782 33.5V17.5C10.1782 16.9 10.687 16.5 11.4504 16.5C12.2137 16.5 12.7226 16.9 12.7226 17.5V19.5V28V33.5ZM15.2672 23.5L22.9008 27.9V32.2L15.2672 27V23.5ZM16.5394 56.2C16.5394 56.4 16.4122 56.5 16.1577 56.5H14.3766C14.1221 56.5 13.995 56.4 13.995 56.2V53.5H16.5395V56.2H16.5394ZM16.5394 51.5H13.995C14.5038 44.7 19.7202 37.6001 22.9008 35.9V36.4001V36.5C22.9008 37.6001 23.6641 38.3 24.9363 38.5001C20.8652 41.1 16.9211 46 16.5394 51.5ZM45.8015 42.5V54.5H30.5344V42.5H33.0789H43.2571H45.8015ZM40.7125 40.5H35.6235V38.5H40.7125V40.5ZM43.2569 36.5H33.0788H30.5344H30.4072H25.5725C25.4453 36.5 25.4453 36.5 25.4453 36.4001L25.5725 24.5H50.7634C50.8905 24.5 50.8905 24.5 50.8905 24.6V27V33.5V36.4001C50.8905 36.5 50.8905 36.5 50.7634 36.5H45.8015H43.2569ZM62.3409 56.2C62.3409 56.4 62.2137 56.5 61.9592 56.5H60.178C59.9235 56.5 59.7963 56.4 59.7963 56.2V53.5H62.3409V56.2ZM62.3409 51.5H59.7963C59.2875 46.0001 55.3434 41.1 51.3994 38.5001C52.5444 38.3 53.435 37.5001 53.435 36.5V36.4001V35.9C56.743 37.6 61.8321 44.7 62.3409 51.5ZM53.4351 32.3V28.0001L61.0687 23.5001V27.1001L53.4351 32.3ZM66.1577 33.5C66.1577 34.1 65.6489 34.5 64.8855 34.5C64.1221 34.5 63.6133 34.1 63.6133 33.5V28.0001V19.5V17.5C63.6133 16.9 64.1221 16.5 64.8855 16.5C65.6489 16.5 66.1577 16.9 66.1577 17.5V33.5ZM66.1577 9.20004C66.1577 9.40008 66.0305 9.50004 65.776 9.50004H63.9948C63.7403 9.50004 63.6131 9.40008 63.6131 9.20004V7.5H66.1577V9.20004Z" fill="white" fill-opacity="0.88"/>
</g>
<path d="M93.0851 43.148V26.404H96.6211L101.535 36.466L106.449 26.404H109.959V43.148H106.449V32.254L102.549 40.262H100.521L96.5951 32.254V43.148H93.0851ZM112.395 37.454V34.724H122.431V37.454H112.395ZM124.874 43.148V26.404H131.894C134.407 26.404 136.297 27.054 137.562 28.354C138.845 29.6367 139.486 31.8033 139.486 34.854C139.486 37.7313 138.853 39.8373 137.588 41.172C136.34 42.4893 134.442 43.148 131.894 43.148H124.874ZM128.384 40.444H131.4C132.388 40.444 133.22 40.2967 133.896 40.002C134.572 39.69 135.075 39.1353 135.404 38.338C135.751 37.5233 135.924 36.362 135.924 34.854C135.924 33.346 135.768 32.1933 135.456 31.396C135.144 30.5987 134.659 30.0527 134 29.758C133.341 29.4633 132.475 29.316 131.4 29.316H128.384V40.444ZM141.937 43.148V30.824H145.187L145.343 32.098C145.897 31.7513 146.582 31.4393 147.397 31.162C148.229 30.8673 149.043 30.668 149.841 30.564V33.216C149.373 33.2853 148.861 33.3893 148.307 33.528C147.752 33.6667 147.223 33.8227 146.721 33.996C146.218 34.1693 145.793 34.3513 145.447 34.542V43.148H141.937ZM157.29 43.408C154.985 43.408 153.295 42.8533 152.22 41.744C151.145 40.6173 150.608 39.0313 150.608 36.986C150.608 34.9407 151.145 33.3633 152.22 32.254C153.312 31.1273 155.002 30.564 157.29 30.564C159.595 30.564 161.285 31.1273 162.36 32.254C163.452 33.3633 163.998 34.9407 163.998 36.986C163.998 39.0313 163.461 40.6173 162.386 41.744C161.311 42.8533 159.613 43.408 157.29 43.408ZM157.29 40.418C158.417 40.418 159.223 40.1667 159.708 39.664C160.193 39.144 160.436 38.2513 160.436 36.986C160.436 35.7207 160.193 34.8367 159.708 34.334C159.223 33.814 158.417 33.554 157.29 33.554C156.181 33.554 155.383 33.814 154.898 34.334C154.413 34.8367 154.17 35.7207 154.17 36.986C154.17 38.2513 154.413 39.144 154.898 39.664C155.383 40.1667 156.181 40.418 157.29 40.418ZM166.439 43.148V30.824H169.689L169.819 31.994C170.321 31.6127 170.954 31.2833 171.717 31.006C172.497 30.7113 173.311 30.564 174.161 30.564C175.79 30.564 176.977 30.9453 177.723 31.708C178.468 32.4707 178.841 33.6493 178.841 35.244V43.148H175.331V35.426C175.331 34.594 175.157 34.0047 174.811 33.658C174.481 33.3113 173.857 33.138 172.939 33.138C172.401 33.138 171.855 33.2593 171.301 33.502C170.763 33.7447 170.313 34.048 169.949 34.412V43.148H166.439ZM187.714 43.408C185.582 43.408 183.892 42.8793 182.644 41.822C181.396 40.7473 180.772 39.1267 180.772 36.96C180.772 35.0013 181.292 33.45 182.332 32.306C183.389 31.1447 184.958 30.564 187.038 30.564C188.945 30.564 190.401 31.0667 191.406 32.072C192.429 33.06 192.94 34.36 192.94 35.972V38.208H184.022C184.213 39.196 184.663 39.872 185.374 40.236C186.102 40.6 187.125 40.782 188.442 40.782C189.101 40.782 189.768 40.7213 190.444 40.6C191.137 40.4787 191.727 40.3227 192.212 40.132V42.628C191.64 42.888 190.973 43.0787 190.21 43.2C189.447 43.3387 188.615 43.408 187.714 43.408ZM184.022 36.05H189.872V35.374C189.872 34.6633 189.664 34.1087 189.248 33.71C188.832 33.294 188.13 33.086 187.142 33.086C185.981 33.086 185.166 33.32 184.698 33.788C184.247 34.256 184.022 35.01 184.022 36.05Z" fill="white"/>
<defs>
<clipPath id="clip0_2_27">
<rect width="76.3359" height="60" fill="white"/>
</clipPath>
</defs>
</svg>
